<?xml version="1.0" encoding="utf-8"?>
<!-- Generator: Adobe Illustrator 25.4.1, SVG Export Plug-In . SVG Version: 6.00 Build 0)  -->
<svg version="1.1" id="DG_Nexolution_Logo" xmlns="http://www.w3.org/2000/svg" xmlns:xlink="http://www.w3.org/1999/xlink" x="0px"
	 y="0px" viewBox="0 0 212.5986328 24.9457684" style="enable-background:new 0 0 212.5986328 24.9457684;" xml:space="preserve">
<style type="text/css">
	.st0{fill:#FF6500;}
	.st1{fill:#002F64;}
	.st2{fill:#FFFFFF;}
	.st3{fill:#0F0F0F;}
</style>
<g>
	<polygon class="st0" points="96.2797546,7.4331675 81.9759064,24.5475063 86.4684677,24.5475063 100.6673126,7.4331675 	"/>
	<path class="st0" d="M26.4957027,24.9452591c-4.1873188,0-7.7360973-2.032135-9.535656-5.4476147
		c-1.6648607,3.259573-5.0770769,5.0514412-9.6349335,5.0514412H0.0001038V4.0249829h7.3250093
		c4.5573902,0,7.9700727,1.7921014,9.6349335,5.0521407c1.7995586-3.4157124,5.3483372-5.448081,9.535656-5.448081
		c4.0428314,0,7.443861,1.8501289,9.3305798,5.0761442l0.0531311,0.0913534l-3.2956924,1.7487545l-0.0484734-0.0876236
		c-1.1726742-2.1300144-3.3739986-3.3518586-6.0395451-3.3518586c-4.1658783,0-7.0751877,2.9531217-7.0751877,7.1812215
		c0,4.2283335,2.9093094,7.1814547,7.0751877,7.1814547c3.3283215,0,5.7822628-1.6487789,6.7549877-4.5298901H24.985117v-3.4765368
		h12.2697163c0,0,0.0188599,1.3722553,0,1.829155C37.0194931,20.9934216,32.360466,24.9452591,26.4957027,24.9452591z
		 M7.3251133,21.0727825c4.5629835,0,7.075654-2.4098988,7.075654-6.7857485c0-4.3753834-2.5126705-6.7850485-7.075654-6.7850485
		H3.6840487v13.570797H7.3251133z"/>
	<path class="st1" d="M110.2950439,6.9610391c-5.327652,0-9.1939316,3.7818036-9.1939316,8.9915676
		c0,5.2102289,3.8662796,8.9924994,9.1939316,8.9924994c5.3276215,0,9.1939011-3.7822704,9.1939011-8.9924994
		C119.488945,10.7428427,115.6226654,6.9610391,110.2950439,6.9610391z M110.2950439,21.5441723
		c-3.2530136,0-5.5247421-2.2994289-5.5247421-5.5915651c0-3.2930975,2.2717285-5.592061,5.5247421-5.592061
		c3.2529907,0,5.5247421,2.2989635,5.5247421,5.592061C115.8197861,19.2447433,113.5480347,21.5441723,110.2950439,21.5441723z"/>
	<path class="st1" d="M141.5390472,24.9452591c-5.2915192,0-8.4510651-3.2230186-8.4510651-8.6209679V7.4329906h3.6349182v8.8913002
		c0,3.3175201,1.7553864,5.2199268,4.8161469,5.2199268c3.0597839,0,4.8156738-1.9024067,4.8156738-5.2199268V7.4329906h3.635849
		v8.8913002C149.9905701,21.7222404,146.8315125,24.9452591,141.5390472,24.9452591z"/>
	<rect x="167.6368713" y="7.4324536" class="st1" width="3.6368117" height="17.1150532"/>
	<path class="st1" d="M183.8297577,6.9611917c-5.327301,0-9.1941833,3.7819104-9.1941833,8.9918213
		c0,5.2103767,3.8668823,8.992754,9.1941833,8.992754c5.3282471,0,9.1955872-3.7823772,9.1955872-8.992754
		C193.0253448,10.7431021,189.1580048,6.9611917,183.8297577,6.9611917z M183.8297577,21.544735
		c-3.2530975,0-5.5249329-2.2994938-5.5249329-5.5917225c0-3.29319,2.2718353-5.5922174,5.5249329-5.5922174
		c3.2525787,0,5.5243988,2.2990274,5.5243988,5.5922174C189.3541565,19.2452412,187.0823364,21.544735,183.8297577,21.544735z"/>
	<path class="st1" d="M208.962204,24.5475063v-8.9333696c0-3.3389969-1.7549438-5.2538137-4.8147278-5.2538137
		c-3.0602722,0-4.8156738,1.9148169-4.8156738,5.2538137v8.9333696h-3.6363525v-8.9333696
		c0-5.4184723,3.1595612-8.6529446,8.4520264-8.6529446c5.2915192,0,8.4510498,3.2344728,8.4510498,8.6529446v8.9333696H208.962204z
		"/>
	<path class="st1" d="M129.337326,24.8020782c-4.1915894,0-6.712265-2.5390892-6.712265-6.9667435V0.0000022h3.6368103v17.8353329
		c0,2.3333836,1.0719604,3.5657005,3.266449,3.5657005c0.7218628,0,1.3502045-0.1617947,1.3502045-0.1617947v3.2231846
		C130.8785248,24.4624252,130.3072052,24.8020782,129.337326,24.8020782z"/>
	<path class="st1" d="M163.6400146,10.7659073V7.4333639h-4.6161194V1.4901272h-3.6373291v5.9432368h-2.3677216v3.3263388h2.3677216
		v7.0756207c0,4.4276714,2.5205841,6.9667625,6.7122192,6.9667625c0.9698029,0,1.5412292-0.3396606,1.5412292-0.3396606v-3.2231884
		c0,0-0.6284027,0.1617908-1.3502502,0.1617908c-2.194458,0-3.266449-1.2323036-3.266449-3.5657043v-7.069416H163.6400146z"/>
	<polygon class="st1" points="90.7728043,12.7659283 86.315773,7.4331641 82.0235367,7.4331641 88.6023941,15.36273 	"/>
	<polygon class="st1" points="91.8943863,19.3306255 96.2225113,24.5474834 100.6197281,24.5474834 94.0689468,16.7095928 	"/>
	<path class="st1" d="M57.3031769,24.5475063v-8.9333696c0-3.3389969-1.7549324-5.2538137-4.814724-5.2538137
		c-3.0602684,0-4.8156738,1.9148169-4.8156738,5.2538137v8.9333696H44.036438v-8.9333696
		c0-5.4184723,3.1595459-8.6529446,8.4520149-8.6529446c5.2915154,0,8.4510574,3.2344728,8.4510574,8.6529446v8.9333696H57.3031769z
		"/>
	<path class="st1" d="M77.2437515,19.617857c-0.354248,0.4707031-0.777832,0.8660889-1.3642578,1.2295532
		c-0.7849121,0.4871216-2.0002441,0.8578491-3.1699219,0.8578491c-1.5415039,0-2.9077148-0.4518433-3.8886719-1.2564697
		c-0.9165039-0.7494507-1.5874023-1.7643433-1.7922363-3.0048828c-0.0075684-0.0455322-0.0195312-0.1835327-0.0195312-0.1835327
		h14.4074707v-1.4647217c0-1.2720947-0.2270508-2.4615479-0.6757812-3.534729
		c-0.4467773-1.0708008-1.074707-2.0133667-1.8662109-2.8012085c-0.7902832-0.7858887-1.737793-1.4061279-2.8166504-1.8422856
		c-1.0783691-0.4352417-2.2731934-0.65625-3.5510254-0.65625c-1.2788086,0-2.4799805,0.2373657-3.5693359,0.7047729
		c-1.088623,0.4674077-2.0512695,1.1130376-2.8613281,1.9196172c-0.8115234,0.8066406-1.4555664,1.7702637-1.9143066,2.864624
		c-0.4582558,1.0928955-0.6909218,2.2929077-0.6909218,3.5664673c0,1.2514038,0.2214355,2.4346313,0.6586952,3.5178833
		c0.4382324,1.0838013,1.0722656,2.0378418,1.8835449,2.8353271c0.8125,0.7969971,1.7915039,1.4325562,2.9101562,1.8884277
		c1.1203613,0.4553833,2.3896484,0.6869507,3.7731934,0.6869507c1.875,0,3.4750977-0.3828735,4.7568359-1.137085
		c1.1359863-0.6685791,2.1000977-1.5505981,2.8342285-2.5543213L77.2437515,19.617857z M67.1714859,14.0782452
		c0.3474121-1.0804443,1.0200195-1.9987793,1.8876953-2.7025757c0.9399414-0.7628174,2.1655273-1.1348267,3.4956055-1.1348267
		c1.3740234,0,2.6577148,0.4234009,3.5661621,1.1348267c0.8439941,0.6610718,1.3786621,1.5303955,1.6506348,2.7078857
		l0.0202637,0.1359253H67.1412125L67.1714859,14.0782452z"/>
	<path class="st1" d="M171.9246826,2.822382c0-1.3931569-1.0500031-2.4436331-2.4421997-2.4436331
		c-1.393158,0-2.4431763,1.0504763-2.4431763,2.4436331c0,1.4117713,1.0500183,2.4765668,2.4431763,2.4765668
		C170.8746796,5.2989488,171.9246826,4.2341533,171.9246826,2.822382z"/>
</g>
</svg>
